HIERARCHY
ROOT Hips
{
	OFFSET 0.000000 0.000000 0.000000
	CHANNELS 6 Xposition Yposition Zposition Zrotation Yrotation Xrotation 
	JOINT LHipJoint
	{
		OFFSET 0.000000 0.000000 0.000000
		CHANNELS 3 Zrotation Yrotation Xrotation
		JOINT LeftUpLeg
		{
			OFFSET 1.363060 -1.794630 0.839290
			CHANNELS 3 Zrotation Yrotation Xrotation
			JOINT LeftLeg
			{
				OFFSET 2.448110 -6.726130 0.000000
				CHANNELS 3 Zrotation Yrotation Xrotation
				JOINT LeftFoot
				{
					OFFSET 2.562200 -7.039590 0.000000
					CHANNELS 3 Zrotation Yrotation Xrotation
					JOINT LeftToeBase
					{
						OFFSET 0.157640 -0.433110 2.322550
						CHANNELS 3 Zrotation Yrotation Xrotation
						End Site
						{
							OFFSET 0.000000 0.000000 0.000000
						}
					}
				}
			}
		}
	}
	JOINT RHipJoint
	{
		OFFSET 0.000000 0.000000 0.000000
		CHANNELS 3 Zrotation Yrotation Xrotation
		JOINT RightUpLeg
		{
			OFFSET -1.305520 -1.794630 0.839290
			CHANNELS 3 Zrotation Yrotation Xrotation
			JOINT RightLeg
			{
				OFFSET -2.542530 -6.985550 0.000000
				CHANNELS 3 Zrotation Yrotation Xrotation
				JOINT RightFoot
				{
					OFFSET -2.568260 -7.056230 0.000000
					CHANNELS 3 Zrotation Yrotation Xrotation
					JOINT RightToeBase
					{
						OFFSET -0.164730 -0.452590 2.363150
						CHANNELS 3 Zrotation Yrotation Xrotation
						End Site
						{
							OFFSET 0.000000 0.000000 0.000000
						}
					}
				}
			}
		}
	}
	JOINT LowerBack
	{
		OFFSET 0.000000 0.000000 0.000000
		CHANNELS 3 Zrotation Yrotation Xrotation
		JOINT Spine
		{
			OFFSET 0.028270 2.035590 -0.193380
			CHANNELS 3 Zrotation Yrotation Xrotation
			JOINT Spine1
			{
				OFFSET 0.056720 2.048850 -0.042750
				CHANNELS 3 Zrotation Yrotation Xrotation
				JOINT Neck
				{
					OFFSET 0.000000 0.000000 0.000000
					CHANNELS 3 Zrotation Yrotation Xrotation
					JOINT Neck1
					{
						OFFSET -0.054170 1.746240 0.172020
						CHANNELS 3 Zrotation Yrotation Xrotation
						JOINT Head
						{
							OFFSET 0.104070 1.761360 -0.123970
							CHANNELS 3 Zrotation Yrotation Xrotation
							End Site
							{
								OFFSET 0.000000 0.000000 0.000000
							}
						}
					}
				}
				JOINT LeftShoulder
				{
					OFFSET 0.000000 0.000000 0.000000
					CHANNELS 3 Zrotation Yrotation Xrotation
					JOINT LeftArm
					{
						OFFSET 3.362410 1.200890 -0.311210
						CHANNELS 3 Zrotation Yrotation Xrotation
						JOINT LeftForeArm
						{
							OFFSET 4.983000 -0.000000 -0.000000
							CHANNELS 3 Zrotation Yrotation Xrotation
							JOINT LeftHand
							{
								OFFSET 3.483560 -0.000000 -0.000000
								CHANNELS 3 Zrotation Yrotation Xrotation
								JOINT LeftFingerBase
								{
									OFFSET 0.000000 0.000000 0.000000
									CHANNELS 3 Zrotation Yrotation Xrotation
									JOINT LeftHandIndex1
									{
										OFFSET 0.715260 -0.000000 -0.000000
										CHANNELS 3 Zrotation Yrotation Xrotation
										End Site
										{
											OFFSET 0.000000 0.000000 0.000000
										}
									}
								}
								JOINT LThumb
								{
									OFFSET 0.000000 0.000000 0.000000
									CHANNELS 3 Zrotation Yrotation Xrotation
									End Site
									{
										OFFSET 0.000000 0.000000 0.000000
									}
								}
							}
						}
					}
				}
				JOINT RightShoulder
				{
					OFFSET 0.000000 0.000000 0.000000
					CHANNELS 3 Zrotation Yrotation Xrotation
					JOINT RightArm
					{
						OFFSET -3.136600 1.374050 -0.404650
						CHANNELS 3 Zrotation Yrotation Xrotation
						JOINT RightForeArm
						{
							OFFSET -5.241900 -0.000000 -0.000000
							CHANNELS 3 Zrotation Yrotation Xrotation
							JOINT RightHand
							{
								OFFSET -3.444170 -0.000000 -0.000000
								CHANNELS 3 Zrotation Yrotation Xrotation
								JOINT RightFingerBase
								{
									OFFSET 0.000000 0.000000 0.000000
									CHANNELS 3 Zrotation Yrotation Xrotation
									JOINT RightHandIndex1
									{
										OFFSET -0.622530 -0.000000 -0.000000
										CHANNELS 3 Zrotation Yrotation Xrotation
										End Site
										{
											OFFSET 0.000000 0.000000 0.000000
										}
									}
								}
								JOINT RThumb
								{
									OFFSET 0.000000 0.000000 0.000000
									CHANNELS 3 Zrotation Yrotation Xrotation
									End Site
									{
										OFFSET 0.000000 0.000000 0.000000
									}
								}
							}
						}
					}
				}
			}
		}
	}
}
MOTION
Frames: 12
Frame Time: 0.008333
9.194717 15.994298 17.962131 161.222184 -1.299238 -135.826533 21.451128 12.857770 8.137017 2.453056 -42.935590 -57.678828 8.003813 13.569297 40.745319 8.988464 5.693634 -51.055486 1.532000 -7.814400 -22.151700 -21.985580 -14.674793 13.197032 -13.403841 24.566218 -86.038005 -7.206407 -20.015760 55.256581 -4.822338 1.145248 -52.112134 -5.345200 13.762300 -42.293600 -0.039601 0.326879 -24.040467 -16.031447 -0.155132 26.689029 3.904847 -1.732595 4.013044 -4.931128 -7.681563 -2.554674 1.475428 -11.095310 14.970233 -0.968000 -5.343000 2.991600 22.600981 0.498789 -0.031075 -104.957465 6.511827 4.597403 20.719349 -19.088279 -2.207212 0.955751 -0.147812 6.759323 21.212852 -14.210639 -5.195500 -7.125000 0.000000 0.000000 -4.919400 14.848000 3.507700 -12.993658 -0.087185 -1.143643 89.741424 5.007279 26.260232 -31.868006 41.630908 -8.437287 0.360484 -4.227385 -8.717296 -6.558867 -55.336589 4.920300 7.125000 0.000000 0.000000 63.461000 -72.935500 -46.628400 
9.281212 16.015946 17.940005 161.078864 -1.004892 -135.949778 21.539613 12.804068 8.124953 1.945479 -42.778695 -57.390107 8.007350 13.655120 40.936460 8.853060 5.564569 -50.354430 1.208300 -6.973500 -19.636800 -22.074608 -14.715833 13.202473 -13.319450 25.025224 -85.994822 -7.218867 -19.875983 55.148614 -4.806392 1.300298 -52.100977 -5.231400 13.639700 -41.813000 -0.335714 0.340710 -24.720564 -15.731787 -0.071143 27.154319 3.755976 -1.738043 4.899494 -4.731217 -7.522670 -2.321709 1.550990 -10.968115 13.633298 -0.967100 -5.304100 2.849900 22.584843 0.506227 -0.107094 -105.251843 5.917895 4.191547 20.475515 -18.937521 -2.148405 0.935386 -0.157137 7.123980 20.753233 -14.184403 -5.060700 -7.125000 0.000000 0.000000 -5.218600 14.931600 3.713400 -13.137702 -0.186944 -1.215643 90.324686 5.812251 25.689927 -31.473796 41.423460 -8.256374 0.375742 -4.243684 -8.626213 -6.190179 -55.427611 4.651900 7.125000 0.000000 0.000000 63.894300 -72.836600 -46.897400 
9.364450 16.038647 17.920656 161.166734 -0.871217 -136.109533 21.513725 12.798921 8.131946 2.044476 -42.564683 -57.526551 8.003941 13.787668 41.601760 8.439409 4.446615 -50.437418 0.771400 -5.608200 -15.651700 -22.188339 -14.743655 13.192444 -12.962402 25.700498 -85.789044 -7.205298 -19.642845 54.866809 -4.750027 1.634804 -52.120106 -4.884300 13.252300 -40.320500 -0.428181 0.223574 -24.571913 -15.263527 -0.220916 27.244039 3.677356 -1.760060 4.691129 -4.997045 -7.431577 -2.298181 1.743085 -10.887623 13.656651 -0.905900 -5.260900 2.856500 22.456221 0.502492 -0.119141 -105.660733 5.959286 3.775487 20.339886 -18.825694 -2.114891 0.916296 -0.183302 7.414902 20.455742 -14.548119 -5.098100 -7.125000 0.000000 0.000000 -5.423000 14.606700 3.897900 -13.107494 -0.228695 -1.235761 90.665207 5.925505 25.419637 -31.268092 41.268114 -8.150224 0.289675 -4.234317 -8.425951 -7.344099 -55.012371 5.470700 7.125000 0.000000 0.000000 62.030600 -73.074000 -45.535700 
9.442229 16.061253 17.907054 161.362573 -0.837222 -136.173017 21.309685 12.801176 8.192344 2.434276 -42.003405 -58.131177 8.021419 14.039495 42.622283 8.064766 3.489586 -50.575329 0.983900 -6.313800 -17.697700 -22.234757 -14.752265 13.165936 -12.539239 26.340102 -85.641559 -7.210556 -19.430537 54.583142 -4.719581 1.794881 -52.041265 -4.626600 12.950600 -39.183700 -0.290035 0.183168 -24.582777 -14.849351 -0.283886 27.519812 3.391153 -1.758633 4.409002 -5.532148 -7.707979 -3.028162 2.779768 -11.301715 15.137462 -0.817600 -5.360300 3.114600 22.460094 0.557110 -0.095541 -105.874719 5.891177 3.807585 20.185781 -18.690850 -2.079945 0.902818 -0.194638 7.674888 20.304388 -14.547873 -5.054900 -7.125000 0.000000 0.000000 -5.517500 14.633200 3.963400 -13.032992 -0.232732 -1.208878 91.128018 5.936165 25.085652 -31.212469 41.339031 -8.169006 -0.005654 -4.134111 -8.489038 -12.101220 -52.165887 8.628700 7.125000 0.000000 0.000000 50.812000 -73.412900 -36.500700 
9.513781 16.083954 17.895368 161.509056 -0.791261 -136.143601 21.009075 12.771247 8.202447 2.668351 -41.276298 -58.861914 8.110154 14.419660 43.838357 7.956936 3.380081 -50.599001 1.519100 -7.782900 -22.056500 -22.200172 -14.747452 13.165043 -12.164797 26.733210 -85.547530 -7.190801 -19.272898 54.249500 -4.676558 1.866127 -51.863362 -4.625800 12.949600 -39.180100 -0.143712 0.188124 -24.686258 -14.573702 -0.321428 27.592990 3.301035 -1.748572 4.553422 -5.070241 -7.516123 -2.892508 1.918600 -10.948378 14.326824 -0.934300 -5.252000 3.003600 22.318135 0.571271 -0.137121 -106.068762 5.679330 4.033494 20.070408 -18.579677 -2.057026 0.894923 -0.193261 7.901321 20.290158 -14.336222 -4.982300 -7.125000 0.000000 0.000000 -5.514600 14.853100 3.935300 -13.106372 -0.270742 -1.236073 91.643457 6.156793 24.568637 -31.029971 41.304064 -8.136990 -0.292256 -4.020910 -8.594608 -16.484287 -49.198857 11.256600 7.125000 0.000000 0.000000 39.532700 -73.172900 -27.501900 
9.582651 16.108667 17.883299 161.720466 -0.839366 -136.251401 20.764556 12.751098 8.151175 2.813391 -40.722904 -59.446748 8.281749 14.874916 45.285503 8.045745 3.800820 -50.763478 1.454000 -7.621900 -21.571300 -22.183569 -14.728480 13.235970 -11.545158 27.143301 -85.209150 -7.131717 -19.073667 53.702325 -4.599611 1.984500 -51.694140 -4.680600 13.014900 -39.424100 -0.086755 0.064431 -24.696922 -13.936110 -0.507720 27.809217 3.076356 -1.779071 4.468206 -5.109295 -7.421818 -2.995135 1.751918 -10.796801 14.239666 -0.948000 -5.188900 3.009600 22.162196 0.589283 -0.156211 -106.371326 5.633125 4.088432 20.021171 -18.605002 -2.059369 0.882805 -0.216504 7.931799 20.329967 -14.725671 -5.119300 -7.125000 0.000000 0.000000 -5.494500 14.466400 3.966300 -13.138094 -0.321630 -1.266348 92.123262 6.351190 24.104030 -30.766817 41.116042 -7.995079 -0.280257 -4.048324 -8.285553 -15.993782 -49.923331 11.041600 7.125000 0.000000 0.000000 41.759000 -73.475900 -29.438700 
9.650468 16.132996 17.872475 162.089719 -0.990190 -136.451996 20.516545 12.739742 8.081856 3.112460 -40.185087 -60.062673 8.544279 15.430761 47.090471 8.294471 4.688506 -51.111663 1.204000 -6.961500 -19.601300 -22.171650 -14.688041 13.296163 -10.713636 27.717340 -84.748532 -7.094680 -18.840417 53.157790 -4.530200 2.135992 -51.596300 -4.637300 12.963300 -39.231400 -0.009193 -0.081919 -24.626076 -12.978661 -0.718519 28.146481 2.750439 -1.781523 4.188346 -5.302775 -7.439121 -3.263086 1.817228 -10.803888 14.738555 -0.943900 -5.175800 3.094200 21.989376 0.619110 -0.168487 -106.635841 5.606430 4.309343 19.994645 -18.651001 -2.066546 0.864054 -0.229543 7.794420 20.202872 -14.975155 -5.165400 -7.125000 0.000000 0.000000 -5.577600 14.237700 4.054100 -13.172482 -0.361885 -1.289769 92.462983 6.393312 23.798496 -30.689604 41.047694 -7.912761 -0.030593 -4.159411 -8.024108 -11.950242 -53.106325 8.636000 7.125000 0.000000 0.000000 53.628400 -73.854100 -39.239200 
9.714932 16.155889 17.862801 162.467400 -0.946004 -136.552133 20.209570 12.693532 7.999506 3.335522 -39.510692 -60.701694 8.865997 16.039101 48.944872 8.675170 6.119821 -51.400962 1.284000 -7.180500 -20.251400 -22.127170 -14.648782 13.294893 -10.122006 28.285313 -84.548992 -7.079394 -18.629613 52.781484 -4.477524 2.346401 -51.531443 -4.515300 12.816300 -38.684600 0.071787 -0.132118 -24.568639 -12.218605 -0.824281 28.255182 2.569106 -1.735238 3.997089 -5.244731 -7.462608 -3.316799 1.277829 -10.758566 14.928752 -1.016100 -5.182700 3.113300 21.786421 0.634999 -0.186349 -106.901527 5.489946 4.575935 19.910248 -18.573524 -2.050985 0.845941 -0.221722 7.864117 19.974078 -14.701554 -5.015000 -7.125000 0.000000 0.000000 -5.710100 14.542600 4.114200 -13.228060 -0.367684 -1.302186 92.679729 6.410348 23.659315 -30.600234 40.944967 -7.835403 0.143143 -4.235539 -8.242665 -9.448937 -55.374651 7.047500 7.125000 0.000000 0.000000 62.033700 -73.965500 -46.511600 
9.776140 16.180219 17.852648 162.828647 -0.750947 -136.575358 19.916358 12.631818 7.900928 3.485893 -38.881042 -61.321884 9.196105 16.613149 50.745302 8.995556 7.464336 -51.594876 1.450400 -7.612700 -21.543600 -22.047618 -14.614524 13.290338 -9.654780 28.783982 -84.513392 -7.074750 -18.444835 52.413004 -4.452208 2.386289 -51.328089 -4.562000 12.872900 -38.894500 0.041307 -0.201399 -24.675507 -11.411961 -0.944702 28.326815 2.393341 -1.696590 3.950441 -5.296197 -7.453049 -3.424810 0.601376 -10.637196 15.041861 -1.087000 -5.168000 3.146000 21.553320 0.645468 -0.197202 -107.250309 5.394036 4.822697 19.875187 -18.600711 -2.055752 0.823497 -0.218849 7.905017 19.753923 -14.579371 -4.918200 -7.125000 0.000000 0.000000 -5.840100 14.693500 4.190000 -13.300774 -0.370642 -1.311444 92.879837 6.486252 23.506117 -30.471084 40.816148 -7.752753 0.160671 -4.257288 -8.428197 -9.391146 -55.913404 7.051700 7.125000 0.000000 0.000000 63.764800 -74.144300 -48.231200 
9.840604 16.204166 17.842398 163.160734 -0.545401 -136.585919 19.601201 12.527928 7.764956 3.707253 -38.316411 -61.945264 9.518793 17.137766 52.615187 9.106401 8.085125 -51.938579 1.237200 -7.053500 -19.874000 -22.063021 -14.620787 13.296142 -9.059937 29.350970 -84.416430 -7.057665 -18.219659 51.968131 -4.381307 2.566021 -51.086226 -4.647100 12.975000 -39.275000 0.371258 -0.013040 -25.750914 -11.310292 -0.788294 28.629668 1.891005 -1.665970 5.418650 -5.292960 -7.221464 -3.139000 1.355634 -10.531021 13.665692 -1.016900 -5.092700 3.020100 21.656570 0.570160 -0.263847 -107.208371 4.594354 5.127874 19.820647 -18.708132 -2.062152 0.819824 -0.210703 7.786057 19.679551 -14.464735 -4.862800 -7.125000 0.000000 0.000000 -5.883900 14.814800 4.206400 -13.424077 -0.445406 -1.371867 93.651050 7.275215 23.138888 -30.279105 40.803411 -7.700472 0.149511 -4.256930 -8.248293 -9.424406 -55.970164 7.085600 7.125000 0.000000 0.000000 63.933100 -74.178800 -48.418200 
9.905355 16.226771 17.829276 163.552850 -0.332803 -136.731411 19.405210 12.454281 7.626092 3.760704 -37.871609 -62.263998 9.810934 17.606859 54.352714 9.080512 8.178067 -52.392656 0.797800 -5.701000 -15.919400 -22.172294 -14.637128 13.300170 -8.275289 30.070973 -84.039453 -7.000027 -17.909000 51.329948 -4.252430 2.984886 -50.915640 -4.581100 12.895900 -38.980100 0.231122 0.004902 -24.935530 -10.834714 -0.806797 28.267827 2.188206 -1.538688 4.346051 -5.312508 -7.189454 -3.061380 0.867730 -10.412973 14.494153 -1.037500 -5.052200 3.064400 21.407341 0.579310 -0.233356 -107.451297 5.077340 5.627656 19.877897 -18.658575 -2.075979 0.805790 -0.206516 7.934541 19.678623 -14.289127 -4.809600 -7.125000 0.000000 0.000000 -5.869400 14.994300 4.173400 -13.311905 -0.361809 -1.325653 93.695660 6.419729 22.925499 -30.454516 40.878513 -7.776161 0.189500 -4.238727 -8.242551 -8.729846 -56.022409 6.574500 7.125000 0.000000 0.000000 64.496100 -73.957300 -48.674900 
9.957080 16.253112 17.819314 163.982939 -0.148755 -136.892622 19.246652 12.409108 7.497040 3.719532 -37.499754 -62.582079 10.120800 18.052172 56.081454 9.050978 8.292585 -52.575872 0.646500 -5.143700 -14.318800 -22.257634 -14.623644 13.342565 -7.397142 30.650439 -83.600236 -6.921767 -17.619859 50.601036 -4.108961 3.368600 -50.746245 -4.602800 12.922000 -39.077300 0.336017 0.012506 -24.635375 -10.239920 -0.829209 28.325996 2.088774 -1.446357 3.849899 -5.174713 -7.222464 -3.353033 0.170942 -10.301344 15.086316 -1.138800 -5.025000 3.142000 21.215805 0.639938 -0.227301 -107.638616 5.152391 6.096368 19.896059 -18.704892 -2.093228 0.791429 -0.218225 8.005427 19.764069 -14.422054 -4.875800 -7.125000 0.000000 0.000000 -5.806300 14.860200 4.144700 -13.356307 -0.340802 -1.298681 93.913197 6.099228 22.407944 -30.316763 40.759335 -7.715469 0.245141 -4.210638 -7.961488 -7.248354 -55.207988 5.405000 7.125000 0.000000 0.000000 62.786600 -73.128300 -46.253300 
